;Layer: Drill PTH
;EasyEDA v5.9.42, Tue, 26 Mar 2019 22:23:46 GMT
;136a07bf7604451eaa250bedc6906433
;Gerber Generator version 0.2
M48
INCH,LZ,00.0000
;Holesize 1 = 0.032 INCH
T01C0.032
;Holesize 2 = 0.035 INCH
T02C0.035
;Holesize 3 = 0.047 INCH
T03C0.047
;Holesize 4 = 0.128 INCH
T04C0.128
%
G05
G90
T01
X+027940Y+009999
X+027940Y+012173
X+027940Y+011086
X+027940Y+008913
X+027940Y+007826
X+029059Y+011629
X+029059Y+010543
X+029059Y+009456
X+029059Y+008370
X+007059Y+010000
X+007059Y+007826
X+007059Y+008913
X+007059Y+011086
X+007059Y+012173
X+005940Y+008370
X+005940Y+009456
X+005940Y+010543
X+005940Y+011629
T02
X+024000Y+018000
X+020000Y+018000
T03
X+018025Y+018000
X+014975Y+018000
X+018025Y+016000
X+014975Y+016000
X+018025Y+014000
X+014975Y+014000
X+018025Y+012000
X+014975Y+012000
X+018025Y+010000
X+014975Y+010000
X+018025Y+008000
X+014975Y+008000
X+018025Y+006000
X+014975Y+006000
X+018025Y+004000
X+014975Y+004000
X+018025Y+002000
X+014975Y+002000
T04
X+028499Y+005078
X+028499Y+014921
X+006500Y+014921
X+006500Y+005078
M30
