G04 Layer: TopSilkLayer*
G04 EasyEDA v5.9.42, Tue, 26 Mar 2019 22:23:46 GMT*
G04 136a07bf7604451eaa250bedc6906433*
G04 Gerber Generator version 0.2*
G04 Scale: 100 percent, Rotated: No, Reflected: No *
G04 Dimensions in inches *
G04 leading zeros omitted , absolute positions ,2 integer and 4 decimal *
%FSLAX24Y24*%
%MOIN*%
G90*
G70D02*

%ADD10C,0.010000*%
%ADD17C,0.009000*%
%ADD18C,0.008000*%
%ADD19C,0.006000*%
%ADD20C,0.005000*%

%LPD*%
G54D17*
G01X17525Y17459D02*
G01X15475Y17459D01*
G01X15475Y18540D01*
G01X17525Y18540D01*
G01X17525Y17459D01*
G01X15725Y17459D02*
G01X15725Y18540D01*
G01X17525Y15459D02*
G01X15475Y15459D01*
G01X15475Y16540D01*
G01X17525Y16540D01*
G01X17525Y15459D01*
G01X15725Y15459D02*
G01X15725Y16540D01*
G01X17525Y13459D02*
G01X15475Y13459D01*
G01X15475Y14540D01*
G01X17525Y14540D01*
G01X17525Y13459D01*
G01X15725Y13459D02*
G01X15725Y14540D01*
G01X17525Y11459D02*
G01X15475Y11459D01*
G01X15475Y12540D01*
G01X17525Y12540D01*
G01X17525Y11459D01*
G01X15725Y11459D02*
G01X15725Y12540D01*
G01X17525Y9459D02*
G01X15475Y9459D01*
G01X15475Y10540D01*
G01X17525Y10540D01*
G01X17525Y9459D01*
G01X15725Y9459D02*
G01X15725Y10540D01*
G01X17525Y7459D02*
G01X15475Y7459D01*
G01X15475Y8540D01*
G01X17525Y8540D01*
G01X17525Y7459D01*
G01X15725Y7459D02*
G01X15725Y8540D01*
G01X17525Y5459D02*
G01X15475Y5459D01*
G01X15475Y6540D01*
G01X17525Y6540D01*
G01X17525Y5459D01*
G01X15725Y5459D02*
G01X15725Y6540D01*
G01X17525Y3459D02*
G01X15475Y3459D01*
G01X15475Y4540D01*
G01X17525Y4540D01*
G01X17525Y3459D01*
G01X15725Y3459D02*
G01X15725Y4540D01*
G01X17525Y1459D02*
G01X15475Y1459D01*
G01X15475Y2540D01*
G01X17525Y2540D01*
G01X17525Y1459D01*
G01X15725Y1459D02*
G01X15725Y2540D01*
G54D10*
G01X23239Y18469D02*
G01X23239Y17530D01*
G01X23239Y17530D02*
G01X20760Y17530D01*
G01X20760Y17530D02*
G01X20760Y18469D01*
G01X20760Y18469D02*
G01X23239Y18469D01*
G01X32240Y3936D02*
G01X27318Y3936D01*
G01X27318Y16062D01*
G01X32240Y16062D01*
G01X32240Y3936D01*
G01X34318Y9998D02*
G01X34594Y9998D01*
G01X32240Y13295D02*
G01X34602Y13295D01*
G01X34602Y6700D01*
G01X32240Y6700D01*
G01X32240Y14106D02*
G01X34602Y14106D01*
G01X32240Y15736D02*
G01X34602Y15736D01*
G01X34602Y14118D01*
G01X34602Y4275D02*
G01X34602Y5893D01*
G01X32240Y5893D01*
G01X32240Y4263D02*
G01X34602Y4263D01*
G01X2759Y16063D02*
G01X7681Y16063D01*
G01X7681Y3937D01*
G01X2759Y3937D01*
G01X2759Y16063D01*
G01X681Y10001D02*
G01X405Y10001D01*
G01X2759Y6704D02*
G01X397Y6704D01*
G01X397Y13299D01*
G01X2759Y13299D01*
G01X2759Y5893D02*
G01X397Y5893D01*
G01X2759Y4263D02*
G01X397Y4263D01*
G01X397Y5881D01*
G01X397Y15724D02*
G01X397Y14106D01*
G01X2759Y14106D01*
G01X2759Y15736D02*
G01X397Y15736D01*
G54D18*
G01X24544Y3318D02*
G01X24509Y3390D01*
G01X24435Y3463D01*
G01X24364Y3499D01*
G01X24218Y3499D01*
G01X24144Y3463D01*
G01X24072Y3390D01*
G01X24035Y3318D01*
G01X24000Y3208D01*
G01X24000Y3027D01*
G01X24035Y2918D01*
G01X24072Y2845D01*
G01X24144Y2772D01*
G01X24218Y2736D01*
G01X24364Y2736D01*
G01X24435Y2772D01*
G01X24509Y2845D01*
G01X24544Y2918D01*
G01X24544Y3027D01*
G01X24364Y3027D02*
G01X24544Y3027D01*
G01X24785Y3499D02*
G01X24785Y2736D01*
G01X24785Y2736D02*
G01X25222Y2736D01*
G01X25461Y3499D02*
G01X25461Y2954D01*
G01X25497Y2845D01*
G01X25571Y2772D01*
G01X25680Y2736D01*
G01X25752Y2736D01*
G01X25861Y2772D01*
G01X25935Y2845D01*
G01X25971Y2954D01*
G01X25971Y3499D01*
G01X26428Y3499D02*
G01X26356Y3463D01*
G01X26284Y3390D01*
G01X26247Y3318D01*
G01X26210Y3208D01*
G01X26210Y3027D01*
G01X26247Y2918D01*
G01X26284Y2845D01*
G01X26356Y2772D01*
G01X26428Y2736D01*
G01X26575Y2736D01*
G01X26647Y2772D01*
G01X26719Y2845D01*
G01X26756Y2918D01*
G01X26793Y3027D01*
G01X26793Y3208D01*
G01X26756Y3318D01*
G01X26719Y3390D01*
G01X26647Y3463D01*
G01X26575Y3499D01*
G01X26428Y3499D01*
G01X27032Y3499D02*
G01X27032Y2736D01*
G01X27032Y3499D02*
G01X27542Y2736D01*
G01X27542Y3499D02*
G01X27542Y2736D01*
G01X28342Y3499D02*
G01X28342Y2736D01*
G01X28342Y3499D02*
G01X28668Y3499D01*
G01X28777Y3463D01*
G01X28814Y3427D01*
G01X28851Y3354D01*
G01X28851Y3245D01*
G01X28814Y3172D01*
G01X28777Y3136D01*
G01X28668Y3099D01*
G01X28342Y3099D01*
G01X29309Y3499D02*
G01X29235Y3463D01*
G01X29164Y3390D01*
G01X29127Y3318D01*
G01X29090Y3208D01*
G01X29090Y3027D01*
G01X29127Y2918D01*
G01X29164Y2845D01*
G01X29235Y2772D01*
G01X29309Y2736D01*
G01X29455Y2736D01*
G01X29527Y2772D01*
G01X29600Y2845D01*
G01X29635Y2918D01*
G01X29672Y3027D01*
G01X29672Y3208D01*
G01X29635Y3318D01*
G01X29600Y3390D01*
G01X29527Y3463D01*
G01X29455Y3499D01*
G01X29309Y3499D01*
G01X29913Y3499D02*
G01X29913Y2736D01*
G01X29913Y2736D02*
G01X30348Y2736D01*
G01X30880Y3499D02*
G01X30589Y2736D01*
G01X30880Y3499D02*
G01X31171Y2736D01*
G01X30697Y2990D02*
G01X31061Y2990D01*
G01X31410Y3499D02*
G01X31410Y2736D01*
G01X31410Y3499D02*
G01X31738Y3499D01*
G01X31847Y3463D01*
G01X31884Y3427D01*
G01X31919Y3354D01*
G01X31919Y3281D01*
G01X31884Y3208D01*
G01X31847Y3172D01*
G01X31738Y3136D01*
G01X31410Y3136D01*
G01X31664Y3136D02*
G01X31919Y2736D01*
G01X32160Y3499D02*
G01X32160Y2736D01*
G01X32909Y3499D02*
G01X32400Y2736D01*
G01X32400Y3499D02*
G01X32909Y3499D01*
G01X32400Y2736D02*
G01X32909Y2736D01*
G01X33148Y3499D02*
G01X33148Y2736D01*
G01X33148Y3499D02*
G01X33622Y3499D01*
G01X33148Y3136D02*
G01X33439Y3136D01*
G01X33148Y2736D02*
G01X33622Y2736D01*
G01X33861Y3499D02*
G01X33861Y2736D01*
G01X33861Y3499D02*
G01X34189Y3499D01*
G01X34297Y3463D01*
G01X34335Y3427D01*
G01X34371Y3354D01*
G01X34371Y3281D01*
G01X34335Y3208D01*
G01X34297Y3172D01*
G01X34189Y3136D01*
G01X33861Y3136D01*
G01X34115Y3136D02*
G01X34371Y2736D01*
G01X24000Y2299D02*
G01X24000Y1536D01*
G01X24000Y2299D02*
G01X24327Y2299D01*
G01X24435Y2263D01*
G01X24472Y2227D01*
G01X24509Y2154D01*
G01X24509Y2081D01*
G01X24472Y2008D01*
G01X24435Y1972D01*
G01X24327Y1936D01*
G01X24000Y1936D01*
G01X24255Y1936D02*
G01X24509Y1536D01*
G01X24748Y2299D02*
G01X24748Y1536D01*
G01X24748Y2299D02*
G01X25222Y2299D01*
G01X24748Y1936D02*
G01X25039Y1936D01*
G01X24748Y1536D02*
G01X25222Y1536D01*
G01X25461Y2299D02*
G01X25752Y1536D01*
G01X26043Y2299D02*
G01X25752Y1536D01*
G01X26843Y2154D02*
G01X26915Y2190D01*
G01X27025Y2299D01*
G01X27025Y1536D01*
G01X27302Y1718D02*
G01X27264Y1681D01*
G01X27302Y1645D01*
G01X27338Y1681D01*
G01X27302Y1718D01*
G01X27796Y2299D02*
G01X27686Y2263D01*
G01X27614Y2154D01*
G01X27577Y1972D01*
G01X27577Y1863D01*
G01X27614Y1681D01*
G01X27686Y1572D01*
G01X27796Y1536D01*
G01X27868Y1536D01*
G01X27977Y1572D01*
G01X28051Y1681D01*
G01X28086Y1863D01*
G01X28086Y1972D01*
G01X28051Y2154D01*
G01X27977Y2263D01*
G01X27868Y2299D01*
G01X27796Y2299D01*
G01X24218Y1099D02*
G01X24144Y1063D01*
G01X24072Y990D01*
G01X24035Y918D01*
G01X24000Y808D01*
G01X24000Y627D01*
G01X24035Y518D01*
G01X24072Y445D01*
G01X24144Y372D01*
G01X24218Y336D01*
G01X24364Y336D01*
G01X24435Y372D01*
G01X24509Y445D01*
G01X24544Y518D01*
G01X24581Y627D01*
G01X24581Y808D01*
G01X24544Y918D01*
G01X24509Y990D01*
G01X24435Y1063D01*
G01X24364Y1099D01*
G01X24218Y1099D01*
G01X24822Y845D02*
G01X24822Y81D01*
G01X24822Y736D02*
G01X24894Y808D01*
G01X24967Y845D01*
G01X25076Y845D01*
G01X25148Y808D01*
G01X25222Y736D01*
G01X25257Y627D01*
G01X25257Y554D01*
G01X25222Y445D01*
G01X25148Y372D01*
G01X25076Y336D01*
G01X24967Y336D01*
G01X24894Y372D01*
G01X24822Y445D01*
G01X25497Y627D02*
G01X25935Y627D01*
G01X25935Y699D01*
G01X25897Y772D01*
G01X25861Y808D01*
G01X25789Y845D01*
G01X25680Y845D01*
G01X25606Y808D01*
G01X25535Y736D01*
G01X25497Y627D01*
G01X25497Y554D01*
G01X25535Y445D01*
G01X25606Y372D01*
G01X25680Y336D01*
G01X25789Y336D01*
G01X25861Y372D01*
G01X25935Y445D01*
G01X26175Y845D02*
G01X26175Y336D01*
G01X26175Y699D02*
G01X26284Y808D01*
G01X26356Y845D01*
G01X26464Y845D01*
G01X26538Y808D01*
G01X26575Y699D01*
G01X26575Y336D01*
G01X26814Y663D02*
G01X27468Y663D01*
G01X27709Y1099D02*
G01X28000Y336D01*
G01X28290Y1099D02*
G01X28000Y336D01*
G01X28531Y1099D02*
G01X29039Y336D01*
G01X29039Y1099D02*
G01X28531Y336D01*
G01X29876Y918D02*
G01X29876Y954D01*
G01X29913Y1027D01*
G01X29948Y1063D01*
G01X30022Y1099D01*
G01X30167Y1099D01*
G01X30239Y1063D01*
G01X30276Y1027D01*
G01X30313Y954D01*
G01X30313Y881D01*
G01X30276Y808D01*
G01X30203Y699D01*
G01X29839Y336D01*
G01X30348Y336D01*
G01X30806Y1099D02*
G01X30697Y1063D01*
G01X30625Y954D01*
G01X30589Y772D01*
G01X30589Y663D01*
G01X30625Y481D01*
G01X30697Y372D01*
G01X30806Y336D01*
G01X30880Y336D01*
G01X30989Y372D01*
G01X31061Y481D01*
G01X31097Y663D01*
G01X31097Y772D01*
G01X31061Y954D01*
G01X30989Y1063D01*
G01X30880Y1099D01*
G01X30806Y1099D01*
G01X31338Y954D02*
G01X31410Y990D01*
G01X31519Y1099D01*
G01X31519Y336D01*
G01X32232Y845D02*
G01X32196Y736D01*
G01X32123Y663D01*
G01X32014Y627D01*
G01X31977Y627D01*
G01X31868Y663D01*
G01X31796Y736D01*
G01X31760Y845D01*
G01X31760Y881D01*
G01X31796Y990D01*
G01X31868Y1063D01*
G01X31977Y1099D01*
G01X32014Y1099D01*
G01X32123Y1063D01*
G01X32196Y990D01*
G01X32232Y845D01*
G01X32232Y663D01*
G01X32196Y481D01*
G01X32123Y372D01*
G01X32014Y336D01*
G01X31942Y336D01*
G01X31832Y372D01*
G01X31796Y445D01*
G54D19*
G01X16525Y17421D02*
G01X16525Y16992D01*
G01X16525Y17421D02*
G01X16668Y17421D01*
G01X16730Y17401D01*
G01X16769Y17359D01*
G01X16790Y17319D01*
G01X16810Y17257D01*
G01X16810Y17155D01*
G01X16790Y17094D01*
G01X16769Y17053D01*
G01X16730Y17011D01*
G01X16668Y16992D01*
G01X16525Y16992D01*
G01X16946Y17340D02*
G01X16986Y17359D01*
G01X17048Y17421D01*
G01X17048Y16992D01*
G01X16525Y15421D02*
G01X16525Y14992D01*
G01X16525Y15421D02*
G01X16668Y15421D01*
G01X16730Y15401D01*
G01X16769Y15359D01*
G01X16790Y15319D01*
G01X16810Y15257D01*
G01X16810Y15155D01*
G01X16790Y15094D01*
G01X16769Y15053D01*
G01X16730Y15011D01*
G01X16668Y14992D01*
G01X16525Y14992D01*
G01X16967Y15319D02*
G01X16967Y15340D01*
G01X16986Y15380D01*
G01X17007Y15401D01*
G01X17048Y15421D01*
G01X17130Y15421D01*
G01X17171Y15401D01*
G01X17192Y15380D01*
G01X17211Y15340D01*
G01X17211Y15298D01*
G01X17192Y15257D01*
G01X17151Y15196D01*
G01X16946Y14992D01*
G01X17232Y14992D01*
G01X16525Y13421D02*
G01X16525Y12992D01*
G01X16525Y13421D02*
G01X16668Y13421D01*
G01X16730Y13401D01*
G01X16769Y13359D01*
G01X16790Y13319D01*
G01X16810Y13257D01*
G01X16810Y13155D01*
G01X16790Y13094D01*
G01X16769Y13053D01*
G01X16730Y13011D01*
G01X16668Y12992D01*
G01X16525Y12992D01*
G01X16986Y13421D02*
G01X17211Y13421D01*
G01X17089Y13257D01*
G01X17151Y13257D01*
G01X17192Y13236D01*
G01X17211Y13217D01*
G01X17232Y13155D01*
G01X17232Y13115D01*
G01X17211Y13053D01*
G01X17171Y13011D01*
G01X17110Y12992D01*
G01X17048Y12992D01*
G01X16986Y13011D01*
G01X16967Y13032D01*
G01X16946Y13073D01*
G01X16525Y11421D02*
G01X16525Y10992D01*
G01X16525Y11421D02*
G01X16668Y11421D01*
G01X16730Y11401D01*
G01X16769Y11359D01*
G01X16790Y11319D01*
G01X16810Y11257D01*
G01X16810Y11155D01*
G01X16790Y11094D01*
G01X16769Y11053D01*
G01X16730Y11011D01*
G01X16668Y10992D01*
G01X16525Y10992D01*
G01X17151Y11421D02*
G01X16946Y11134D01*
G01X17252Y11134D01*
G01X17151Y11421D02*
G01X17151Y10992D01*
G01X16525Y9421D02*
G01X16525Y8992D01*
G01X16525Y9421D02*
G01X16668Y9421D01*
G01X16730Y9401D01*
G01X16769Y9359D01*
G01X16790Y9319D01*
G01X16810Y9257D01*
G01X16810Y9155D01*
G01X16790Y9094D01*
G01X16769Y9053D01*
G01X16730Y9011D01*
G01X16668Y8992D01*
G01X16525Y8992D01*
G01X17192Y9421D02*
G01X16986Y9421D01*
G01X16967Y9236D01*
G01X16986Y9257D01*
G01X17048Y9278D01*
G01X17110Y9278D01*
G01X17171Y9257D01*
G01X17211Y9217D01*
G01X17232Y9155D01*
G01X17232Y9115D01*
G01X17211Y9053D01*
G01X17171Y9011D01*
G01X17110Y8992D01*
G01X17048Y8992D01*
G01X16986Y9011D01*
G01X16967Y9032D01*
G01X16946Y9073D01*
G01X16525Y7421D02*
G01X16525Y6992D01*
G01X16525Y7421D02*
G01X16668Y7421D01*
G01X16730Y7401D01*
G01X16769Y7359D01*
G01X16790Y7319D01*
G01X16810Y7257D01*
G01X16810Y7155D01*
G01X16790Y7094D01*
G01X16769Y7053D01*
G01X16730Y7011D01*
G01X16668Y6992D01*
G01X16525Y6992D01*
G01X17192Y7359D02*
G01X17171Y7401D01*
G01X17110Y7421D01*
G01X17068Y7421D01*
G01X17007Y7401D01*
G01X16967Y7340D01*
G01X16946Y7236D01*
G01X16946Y7134D01*
G01X16967Y7053D01*
G01X17007Y7011D01*
G01X17068Y6992D01*
G01X17089Y6992D01*
G01X17151Y7011D01*
G01X17192Y7053D01*
G01X17211Y7115D01*
G01X17211Y7134D01*
G01X17192Y7196D01*
G01X17151Y7236D01*
G01X17089Y7257D01*
G01X17068Y7257D01*
G01X17007Y7236D01*
G01X16967Y7196D01*
G01X16946Y7134D01*
G01X16525Y5421D02*
G01X16525Y4992D01*
G01X16525Y5421D02*
G01X16668Y5421D01*
G01X16730Y5401D01*
G01X16769Y5359D01*
G01X16790Y5319D01*
G01X16810Y5257D01*
G01X16810Y5155D01*
G01X16790Y5094D01*
G01X16769Y5053D01*
G01X16730Y5011D01*
G01X16668Y4992D01*
G01X16525Y4992D01*
G01X17232Y5421D02*
G01X17027Y4992D01*
G01X16946Y5421D02*
G01X17232Y5421D01*
G01X16525Y3421D02*
G01X16525Y2992D01*
G01X16525Y3421D02*
G01X16668Y3421D01*
G01X16730Y3401D01*
G01X16769Y3359D01*
G01X16790Y3319D01*
G01X16810Y3257D01*
G01X16810Y3155D01*
G01X16790Y3094D01*
G01X16769Y3053D01*
G01X16730Y3011D01*
G01X16668Y2992D01*
G01X16525Y2992D01*
G01X17048Y3421D02*
G01X16986Y3401D01*
G01X16967Y3359D01*
G01X16967Y3319D01*
G01X16986Y3278D01*
G01X17027Y3257D01*
G01X17110Y3236D01*
G01X17171Y3217D01*
G01X17211Y3176D01*
G01X17232Y3134D01*
G01X17232Y3073D01*
G01X17211Y3032D01*
G01X17192Y3011D01*
G01X17130Y2992D01*
G01X17048Y2992D01*
G01X16986Y3011D01*
G01X16967Y3032D01*
G01X16946Y3073D01*
G01X16946Y3134D01*
G01X16967Y3176D01*
G01X17007Y3217D01*
G01X17068Y3236D01*
G01X17151Y3257D01*
G01X17192Y3278D01*
G01X17211Y3319D01*
G01X17211Y3359D01*
G01X17192Y3401D01*
G01X17130Y3421D01*
G01X17048Y3421D01*
G01X16525Y1421D02*
G01X16525Y992D01*
G01X16525Y1421D02*
G01X16668Y1421D01*
G01X16730Y1401D01*
G01X16769Y1359D01*
G01X16790Y1319D01*
G01X16810Y1257D01*
G01X16810Y1155D01*
G01X16790Y1094D01*
G01X16769Y1053D01*
G01X16730Y1011D01*
G01X16668Y992D01*
G01X16525Y992D01*
G01X17211Y1278D02*
G01X17192Y1217D01*
G01X17151Y1176D01*
G01X17089Y1155D01*
G01X17068Y1155D01*
G01X17007Y1176D01*
G01X16967Y1217D01*
G01X16946Y1278D01*
G01X16946Y1298D01*
G01X16967Y1359D01*
G01X17007Y1401D01*
G01X17068Y1421D01*
G01X17089Y1421D01*
G01X17151Y1401D01*
G01X17192Y1359D01*
G01X17211Y1278D01*
G01X17211Y1176D01*
G01X17192Y1073D01*
G01X17151Y1011D01*
G01X17089Y992D01*
G01X17048Y992D01*
G01X16986Y1011D01*
G01X16967Y1053D01*
G01X22000Y17490D02*
G01X22000Y17061D01*
G01X22000Y17061D02*
G01X22244Y17061D01*
G01X22380Y17409D02*
G01X22421Y17430D01*
G01X22482Y17490D01*
G01X22482Y17061D01*
G01X31164Y16592D02*
G01X31164Y16265D01*
G01X31143Y16204D01*
G01X31123Y16183D01*
G01X31082Y16163D01*
G01X31041Y16163D01*
G01X31000Y16183D01*
G01X30979Y16204D01*
G01X30959Y16265D01*
G01X30959Y16306D01*
G01X31299Y16511D02*
G01X31339Y16531D01*
G01X31401Y16592D01*
G01X31401Y16163D01*
G54D20*
G01X27847Y12893D02*
G01X27863Y12861D01*
G01X27911Y12814D01*
G01X27577Y12814D01*
G01X27951Y7132D02*
G01X27951Y7291D01*
G01X27808Y7307D01*
G01X27824Y7291D01*
G01X27840Y7244D01*
G01X27840Y7196D01*
G01X27824Y7148D01*
G01X27792Y7116D01*
G01X27744Y7100D01*
G01X27712Y7100D01*
G01X27665Y7116D01*
G01X27633Y7148D01*
G01X27617Y7196D01*
G01X27617Y7244D01*
G01X27633Y7291D01*
G01X27649Y7307D01*
G01X27681Y7323D01*
G01X29040Y7156D02*
G01X28992Y7172D01*
G01X28960Y7204D01*
G01X28944Y7252D01*
G01X28944Y7268D01*
G01X28960Y7315D01*
G01X28992Y7347D01*
G01X29040Y7363D01*
G01X29056Y7363D01*
G01X29103Y7347D01*
G01X29135Y7315D01*
G01X29151Y7268D01*
G01X29151Y7252D01*
G01X29135Y7204D01*
G01X29103Y7172D01*
G01X29040Y7156D01*
G01X28960Y7156D01*
G01X28881Y7172D01*
G01X28833Y7204D01*
G01X28817Y7252D01*
G01X28817Y7284D01*
G01X28833Y7331D01*
G01X28865Y7347D01*
G01X29043Y12712D02*
G01X29075Y12728D01*
G01X29091Y12776D01*
G01X29091Y12808D01*
G01X29075Y12855D01*
G01X29027Y12887D01*
G01X28948Y12903D01*
G01X28868Y12903D01*
G01X28805Y12887D01*
G01X28773Y12855D01*
G01X28757Y12808D01*
G01X28757Y12792D01*
G01X28773Y12744D01*
G01X28805Y12712D01*
G01X28852Y12696D01*
G01X28868Y12696D01*
G01X28916Y12712D01*
G01X28948Y12744D01*
G01X28964Y12792D01*
G01X28964Y12808D01*
G01X28948Y12855D01*
G01X28916Y12887D01*
G01X28868Y12903D01*
G54D19*
G01X4245Y3898D02*
G01X4245Y3571D01*
G01X4224Y3510D01*
G01X4204Y3489D01*
G01X4163Y3469D01*
G01X4122Y3469D01*
G01X4081Y3489D01*
G01X4060Y3510D01*
G01X4040Y3571D01*
G01X4040Y3612D01*
G01X4400Y3796D02*
G01X4400Y3817D01*
G01X4420Y3857D01*
G01X4441Y3878D01*
G01X4482Y3898D01*
G01X4564Y3898D01*
G01X4605Y3878D01*
G01X4625Y3857D01*
G01X4645Y3817D01*
G01X4645Y3776D01*
G01X4625Y3735D01*
G01X4584Y3673D01*
G01X4380Y3469D01*
G01X4666Y3469D01*
G54D20*
G01X7152Y7106D02*
G01X7136Y7138D01*
G01X7088Y7185D01*
G01X7422Y7185D01*
G01X7048Y12867D02*
G01X7048Y12708D01*
G01X7191Y12692D01*
G01X7175Y12708D01*
G01X7159Y12755D01*
G01X7159Y12803D01*
G01X7175Y12851D01*
G01X7207Y12883D01*
G01X7255Y12899D01*
G01X7287Y12899D01*
G01X7334Y12883D01*
G01X7366Y12851D01*
G01X7382Y12803D01*
G01X7382Y12755D01*
G01X7366Y12708D01*
G01X7350Y12692D01*
G01X7318Y12676D01*
G01X5959Y12843D02*
G01X6007Y12827D01*
G01X6039Y12795D01*
G01X6055Y12747D01*
G01X6055Y12731D01*
G01X6039Y12684D01*
G01X6007Y12652D01*
G01X5959Y12636D01*
G01X5943Y12636D01*
G01X5896Y12652D01*
G01X5864Y12684D01*
G01X5848Y12731D01*
G01X5848Y12747D01*
G01X5864Y12795D01*
G01X5896Y12827D01*
G01X5959Y12843D01*
G01X6039Y12843D01*
G01X6118Y12827D01*
G01X6166Y12795D01*
G01X6182Y12747D01*
G01X6182Y12715D01*
G01X6166Y12668D01*
G01X6134Y12652D01*
G01X5956Y7287D02*
G01X5924Y7271D01*
G01X5908Y7223D01*
G01X5908Y7191D01*
G01X5924Y7144D01*
G01X5972Y7112D01*
G01X6051Y7096D01*
G01X6131Y7096D01*
G01X6194Y7112D01*
G01X6226Y7144D01*
G01X6242Y7191D01*
G01X6242Y7207D01*
G01X6226Y7255D01*
G01X6194Y7287D01*
G01X6147Y7303D01*
G01X6131Y7303D01*
G01X6083Y7287D01*
G01X6051Y7255D01*
G01X6035Y7207D01*
G01X6035Y7191D01*
G01X6051Y7144D01*
G01X6083Y7112D01*
G01X6131Y7096D01*
M00*
M02*
