G04 Layer: BottomSolderMaskLayer*
G04 EasyEDA v5.9.42, Tue, 26 Mar 2019 22:23:46 GMT*
G04 136a07bf7604451eaa250bedc6906433*
G04 Gerber Generator version 0.2*
G04 Scale: 100 percent, Rotated: No, Reflected: No *
G04 Dimensions in inches *
G04 leading zeros omitted , absolute positions ,2 integer and 4 decimal *
%FSLAX24Y24*%
%MOIN*%
G90*
G70D02*

%ADD21C,0.093000*%
%ADD22C,0.082000*%
%ADD23C,0.070000*%
%ADD24C,0.204850*%
%ADD25R,0.070000X0.070000*%

%LPD*%
G54D21*
G01X18025Y18000D03*
G01X14975Y18000D03*
G01X18025Y16000D03*
G01X14975Y16000D03*
G01X18025Y14000D03*
G01X14975Y14000D03*
G01X18025Y12000D03*
G01X14975Y12000D03*
G01X18025Y10000D03*
G01X14975Y10000D03*
G01X18025Y8000D03*
G01X14975Y8000D03*
G01X18025Y6000D03*
G01X14975Y6000D03*
G01X18025Y4000D03*
G01X14975Y4000D03*
G01X18025Y2000D03*
G01X14975Y2000D03*
G54D22*
G01X24000Y18000D03*
G01X20000Y18000D03*
G54D23*
G01X27940Y9999D03*
G54D24*
G01X28499Y5078D03*
G54D25*
G01X27940Y12173D03*
G54D23*
G01X27940Y11086D03*
G01X27940Y8913D03*
G01X27940Y7826D03*
G01X29059Y11629D03*
G01X29059Y10543D03*
G01X29059Y9456D03*
G01X29059Y8370D03*
G54D24*
G01X28499Y14921D03*
G54D23*
G01X7059Y10000D03*
G54D24*
G01X6500Y14921D03*
G54D25*
G01X7059Y7826D03*
G54D23*
G01X7059Y8913D03*
G01X7059Y11086D03*
G01X7059Y12173D03*
G01X5940Y8370D03*
G01X5940Y9456D03*
G01X5940Y10543D03*
G01X5940Y11629D03*
G54D24*
G01X6500Y5078D03*
M00*
M02*
